<?xml version="1.0" standalone="no"?><!DOCTYPE svg PUBLIC "-//W3C//DTD SVG 1.1//EN" "http://www.w3.org/Graphics/SVG/1.1/DTD/svg11.dtd"><svg class="icon" width="200px" height="200.00px" viewBox="0 0 1024 1024" version="1.1" xmlns="http://www.w3.org/2000/svg"><path d="M199.18 706.49A27.43 27.43 0 0 1 212.44 743l-23.18 49.71a27.44 27.44 0 1 1-49.74-23.18l23.21-49.74a27.43 27.43 0 0 1 36.46-13.25zM480.31 706.49a27.43 27.43 0 0 1 13.3 36.45l-23.18 49.71a27.44 27.44 0 1 1-49.74-23.18l23.18-49.74a27.43 27.43 0 0 1 36.46-13.26zM754.65 706.49a27.43 27.43 0 0 1 13.3 36.45l-23.18 49.71A27.44 27.44 0 1 1 695 769.51l23.18-49.74a27.43 27.43 0 0 1 36.46-13.26zM343.15 761.36a27.43 27.43 0 0 1 13.3 36.45l-23.18 49.71a27.44 27.44 0 1 1-49.74-23.18l23.18-49.74a27.43 27.43 0 0 1 36.46-13.26zM617.48 761.36a27.43 27.43 0 0 1 13.3 36.45l-23.18 49.71a27.44 27.44 0 1 1-49.74-23.18l23.14-49.7a27.43 27.43 0 0 1 36.46-13.26zM871.21 761.36a27.43 27.43 0 0 1 13.26 36.46l-23.18 49.71a27.43 27.43 0 0 1-49.71-23.18l23.18-49.74a27.43 27.43 0 0 1 36.46-13.25z" fill="#FFCC00" /><path d="M519 183.72a46.14 46.14 0 0 1 4.17-2.39c24.83-12.43 55.3-20.74 84.83-20.74 89.87 0 164.82 65.07 181.64 151.35C851 328.73 896.07 385.6 896.07 453.2c0 80.79-64.47 146.3-144 146.3h-12.76a27.43 27.43 0 0 1 0-54.81H744a97 97 0 0 0 97.17-96.84C841.2 394.33 797.69 351 744 351c0-74.87-60.9-135.55-136-135.55-22.06 0-47 11.69-66.33 18.19a25.79 25.79 0 0 1-16.82 0.05 27.43 27.43 0 0 1-5.9-50z" fill="#0057D9" /><path d="M564.78 599.45c46.2-7.52 84.39-48.61 84.39-96.76 0-53.5-43.51-96.84-97.17-96.84C552 331 491.1 270.3 416 270.3S280 331 280 405.85a97 97 0 0 0-97.17 96.84c0 48.2 38.43 89.35 84.77 96.76a27.43 27.43 0 1 1-5.79 54.55c-74.81-5.28-133.88-68.6-133.88-145.93 0-67.6 45.1-124.47 106.41-141.28C251.16 280.5 326.11 215.43 416 215.43s164.8 65.07 181.62 151.35C658.93 383.6 704 440.47 704 508.07c0 77.33-59 140.65-133.84 145.93a27.43 27.43 0 0 1-5.38-54.59z" fill="#0057D9" /></svg>