<?xml version="1.0" standalone="no"?><!DOCTYPE svg PUBLIC "-//W3C//DTD SVG 1.1//EN" "http://www.w3.org/Graphics/SVG/1.1/DTD/svg11.dtd"><svg class="icon" width="200px" height="200.00px" viewBox="0 0 1024 1024" version="1.1" xmlns="http://www.w3.org/2000/svg"><path d="M236.62 718.19c-95.48-46.14-135.47-160.94-89.33-256.42A192 192 0 0 1 270 360c22.43-113.15 122.28-198.5 242-198.5s219.61 85.35 242 198.53c102.35 27.74 162.83 133.2 135.08 235.55a192 192 0 0 1-101.56 122.56h-0.05a27.42 27.42 0 0 1-23.52-49.54 137.09 137.09 0 0 0-60-260.38c0-106-85.93-191.92-191.92-191.92s-191.92 85.94-191.92 191.94a137.09 137.09 0 0 0-58.84 261 27.43 27.43 0 1 1-24.68 49z" fill="#0057D9" /><path d="M361.64 694a27.42 27.42 0 0 1 13.26 36.44l-23.18 49.66A27.43 27.43 0 1 1 302 756.9l23.2-49.68A27.42 27.42 0 0 1 361.64 694zM535.19 694a27.42 27.42 0 0 1 13.29 36.43L525.3 780.1a27.43 27.43 0 0 1-49.71-23.2l23.17-49.68a27.42 27.42 0 0 1 36.43-13.29zM708.75 694a27.42 27.42 0 0 1 13.32 36.41v0.05l-23.2 49.68a27.42 27.42 0 0 1-49.68-23.2l23.17-49.68A27.42 27.42 0 0 1 708.77 694zM427 760.17a27.42 27.42 0 0 1 13.24 36.44L417 846.31a27.42 27.42 0 1 1-50-22.43q0.17-0.38 0.36-0.76l23.17-49.68a27.42 27.42 0 0 1 36.43-13.27zM602.42 760.17a27.42 27.42 0 0 1 13.24 36.44l-23.16 49.7a27.42 27.42 0 0 1-49.68-23.2L566 773.44a27.42 27.42 0 0 1 36.43-13.27z" fill="#FFCC00" /></svg>