<?xml version="1.0" standalone="no"?><!DOCTYPE svg PUBLIC "-//W3C//DTD SVG 1.1//EN" "http://www.w3.org/Graphics/SVG/1.1/DTD/svg11.dtd"><svg class="icon" width="200px" height="200.00px" viewBox="0 0 1024 1024" version="1.1" xmlns="http://www.w3.org/2000/svg"><path d="M237.12 731.48c-95.29-46.07-135.19-160.67-89.11-256A191.64 191.64 0 0 1 270.42 374C292.81 261 392.47 175.81 512 175.81S731.21 261 753.6 374c102.16 27.69 162.52 133 134.83 235.11A191.64 191.64 0 0 1 787 731.42h-0.05a27.37 27.37 0 0 1-23.5-49.42 136.83 136.83 0 0 0-59.88-259.9c0-105.8-85.77-191.56-191.56-191.56S320.45 316.31 320.45 422.1a136.83 136.83 0 0 0-58.73 260.47 27.38 27.38 0 1 1-24.63 48.9z" fill="#0057D9" /><path d="M361.49 848.19c-22.66 0-41-19.59-41-43.79q0-24.22 41-65.68 41 41.46 41 65.68c0.05 24.2-18.34 43.79-41 43.79zM512 848.19c-22.66 0-41-19.59-41-43.79q0-24.22 41-65.68 41 41.46 41 65.68c0.06 24.2-18.33 43.79-41 43.79zM662.52 848.19c-22.66 0-41-19.59-41-43.79q0-24.22 41-65.68 41 41.46 41 65.68c0.05 24.2-18.34 43.79-41 43.79z" fill="#FFCC00" /></svg>