<?xml version="1.0" standalone="no"?><!DOCTYPE svg PUBLIC "-//W3C//DTD SVG 1.1//EN" "http://www.w3.org/Graphics/SVG/1.1/DTD/svg11.dtd"><svg class="icon" width="200px" height="200.00px" viewBox="0 0 1024 1024" version="1.1" xmlns="http://www.w3.org/2000/svg"><path d="M754.61 341.25c-22.48-113.46-122.56-199-242.64-199s-220.16 85.56-242.64 199A192.4 192.4 0 0 0 127 527.22c0.11 106.26 86.33 192.31 192.59 192.2h384.78a192.4 192.4 0 0 0 186-142.35c27.63-102.6-33.16-208.18-135.76-235.82z m-50.24 323.2H319.58a137.43 137.43 0 0 1 0-274.85c0-106.26 86.14-192.4 192.4-192.4s192.4 86.14 192.4 192.4a137.43 137.43 0 0 1 0 274.85z" fill="#0057D9" /><path d="M287.84 779.53A27.49 27.49 0 0 1 301.16 816l-23.22 49.8a27.49 27.49 0 1 1-49.83-23.22l23.22-49.83a27.49 27.49 0 0 1 36.52-13.32zM452.75 779.53A27.49 27.49 0 0 1 466.07 816l-23.22 49.8A27.49 27.49 0 1 1 393 842.66l23.22-49.83a27.49 27.49 0 0 1 36.52-13.32zM617.66 779.53A27.49 27.49 0 0 1 631 816l-23.22 49.8a27.49 27.49 0 1 1-49.83-23.22l23.22-49.83a27.49 27.49 0 0 1 36.52-13.32zM782.57 779.53A27.49 27.49 0 0 1 795.89 816l-23.22 49.8a27.49 27.49 0 1 1-49.83-23.22L746 792.83a27.49 27.49 0 0 1 36.52-13.32z" fill="#FFCC00" /></svg>