<?xml version="1.0" standalone="no"?><!DOCTYPE svg PUBLIC "-//W3C//DTD SVG 1.1//EN" "http://www.w3.org/Graphics/SVG/1.1/DTD/svg11.dtd"><svg class="icon" width="200px" height="200.00px" viewBox="0 0 1024 1024" version="1.1" xmlns="http://www.w3.org/2000/svg"><path d="M235.86 715.14c-95.72-46.28-135.8-161.4-89.52-257.12a192.52 192.52 0 0 1 123-102C291.81 242.58 391.93 157 512 157s220.2 85.58 242.69 199.06C857.32 383.88 918 489.62 890.14 592.24a192.52 192.52 0 0 1-101.91 122.9h-0.06a27.5 27.5 0 0 1-23.59-49.68 137.45 137.45 0 0 0-60.15-261.11C704.44 298.11 618.29 212 512 212s-192.43 86.11-192.43 192.39a137.45 137.45 0 0 0-59 261.66 27.5 27.5 0 1 1-24.74 49.13z" fill="#0057D9" /><path d="M238.56 765.09v-21.8a13.75 13.75 0 0 1 27.49 0v21.8l15.39-15.39a13.75 13.75 0 0 1 19.46 19.41l-15.41 15.39h21.8a13.75 13.75 0 1 1 0 27.49h-21.8l15.39 15.45a13.75 13.75 0 0 1-19.41 19.44L266 831.45v21.8a13.75 13.75 0 0 1-27.49 0v-21.8l-15.39 15.39a13.75 13.75 0 0 1-19.8-19.07l0.34-0.34L219.1 812h-21.78a13.75 13.75 0 1 1 0-27.49h21.8l-15.39-15.39a13.75 13.75 0 0 1 19.41-19.46l15.39 15.39zM411.69 765.09v-21.8a13.75 13.75 0 0 1 27.49 0v21.8l15.42-15.39a13.75 13.75 0 0 1 19.4 19.41l-15.35 15.39h21.77a13.75 13.75 0 1 1 0 27.49h-21.8L474 827.44a13.75 13.75 0 0 1-19.1 19.77l-0.34-0.34-15.39-15.42v21.8a13.75 13.75 0 0 1-27.49 0v-21.8l-15.38 15.4a13.75 13.75 0 0 1-20.24-18.6q0.39-0.42 0.8-0.81l15.4-15.44h-21.8a13.75 13.75 0 0 1 0-27.49h21.8l-15.39-15.39a13.75 13.75 0 1 1 19.44-19.46l15.39 15.39zM584.86 765.09v-21.8a13.75 13.75 0 0 1 27.49 0v21.8l15.39-15.39a13.75 13.75 0 0 1 19.44 19.41l-15.4 15.39h21.8a13.75 13.75 0 0 1 0 27.49h-21.8l15.39 15.45a13.75 13.75 0 0 1-19.1 19.77l-0.34-0.34-15.39-15.42v21.8a13.75 13.75 0 0 1-27.49 0v-21.8l-15.42 15.39a13.75 13.75 0 1 1-20.24-18.6q0.39-0.42 0.8-0.81l15.4-15.43h-21.77a13.75 13.75 0 1 1 0-27.49h21.8L550 769.13a13.75 13.75 0 0 1 19.44-19.46l15.39 15.39zM758 765.09v-21.8a13.75 13.75 0 1 1 27.49 0v21.8l15.39-15.39a13.75 13.75 0 0 1 19.46 19.41l-15.39 15.39h21.77a13.75 13.75 0 0 1 0 27.49h-21.8l15.39 15.45a13.75 13.75 0 1 1-18.6 20.24q-0.42-0.39-0.81-0.8l-15.39-15.42v21.8a13.75 13.75 0 1 1-27.49 0v-21.8l-15.45 15.39a13.75 13.75 0 1 1-20.24-18.6q0.39-0.42 0.81-0.81L738.56 812h-21.8a13.75 13.75 0 1 1 0-27.49h21.8l-15.39-15.39a13.75 13.75 0 0 1 19.41-19.46l15.42 15.4z" fill="#FFCC00" /></svg>