<?xml version="1.0" standalone="no"?><!DOCTYPE svg PUBLIC "-//W3C//DTD SVG 1.1//EN" "http://www.w3.org/Graphics/SVG/1.1/DTD/svg11.dtd"><svg class="icon" width="200px" height="200.00px" viewBox="0 0 1024 1024" version="1.1" xmlns="http://www.w3.org/2000/svg"><path d="M237.22 741.94c-95.27-46-135.18-160.59-89.14-255.86a191.59 191.59 0 0 1 122.43-101.57c22.38-112.91 122-198.07 241.52-198.07s219.14 85.17 241.52 198.1c102.13 27.68 162.47 132.91 134.79 235a191.59 191.59 0 0 1-101.42 122.35h-0.05a27.36 27.36 0 0 1-23.47-49.44 136.79 136.79 0 0 0-59.86-259.82c0-105.77-85.74-191.51-191.51-191.51S320.52 326.9 320.52 432.66a136.79 136.79 0 0 0-58.71 260.39 27.37 27.37 0 1 1-24.62 48.89z" fill="#0057D9" /><path d="M402.59 736.14v-21.69a13.68 13.68 0 1 1 27.36 0v21.69l15.32-15.32a13.68 13.68 0 0 1 19.7 19l-0.33 0.34-15.32 15.35H471a13.68 13.68 0 0 1 0 27.36h-21.71l15.32 15.32a13.68 13.68 0 0 1-19.31 19.37L430 802.21v21.67a13.68 13.68 0 0 1-27.36 0v-21.69l-15.32 15.32a13.68 13.68 0 0 1-19.37-19.31l15.32-15.35h-21.71a13.68 13.68 0 0 1 0-27.36h21.69l-15.32-15.32a13.68 13.68 0 0 1 19.31-19.37l15.35 15.32zM594.1 736.14v-21.69a13.68 13.68 0 1 1 27.36 0v21.69l15.32-15.32a13.68 13.68 0 0 1 19.7 19l-0.33 0.34-15.32 15.35h21.67a13.68 13.68 0 1 1 0 27.36h-21.7l15.32 15.32a13.68 13.68 0 0 1-19.31 19.37l-15.35-15.32v21.67a13.68 13.68 0 0 1-27.36 0v-21.72l-15.32 15.32a13.68 13.68 0 0 1-19.37-19.31l15.32-15.35h-21.67a13.68 13.68 0 0 1 0-27.36h21.69l-15.32-15.32a13.68 13.68 0 0 1 19.31-19.37l15.35 15.32z" fill="#FFCC00" /></svg>