<?xml version="1.0" standalone="no"?><!DOCTYPE svg PUBLIC "-//W3C//DTD SVG 1.1//EN" "http://www.w3.org/Graphics/SVG/1.1/DTD/svg11.dtd"><svg class="icon" width="200px" height="200.00px" viewBox="0 0 1024 1024" version="1.1" xmlns="http://www.w3.org/2000/svg"><path d="M319.94 388.53m-27.44 0a27.44 27.44 0 1 0 54.88 0 27.44 27.44 0 1 0-54.88 0Z" fill="#FFCC00" /><path d="M512 388.53m-27.44 0a27.44 27.44 0 1 0 54.88 0 27.44 27.44 0 1 0-54.88 0Z" fill="#FFCC00" /><path d="M704.06 388.53m-27.44 0a27.44 27.44 0 1 0 54.88 0 27.44 27.44 0 1 0-54.88 0Z" fill="#FFCC00" /><path d="M210.19 498.28m-27.44 0a27.44 27.44 0 1 0 54.88 0 27.44 27.44 0 1 0-54.88 0Z" fill="#FFCC00" /><path d="M411.39 498.28m-27.44 0a27.44 27.44 0 1 0 54.88 0 27.44 27.44 0 1 0-54.88 0Z" fill="#FFCC00" /><path d="M612.61 498.28m-27.44 0a27.44 27.44 0 1 0 54.88 0 27.44 27.44 0 1 0-54.88 0Z" fill="#FFCC00" /><path d="M813.81 498.28m-27.44 0a27.44 27.44 0 1 0 54.88 0 27.44 27.44 0 1 0-54.88 0Z" fill="#FFCC00" /><path d="M210.19 278.78m-27.44 0a27.44 27.44 0 1 0 54.88 0 27.44 27.44 0 1 0-54.88 0Z" fill="#FFCC00" /><path d="M411.39 278.78m-27.44 0a27.44 27.44 0 1 0 54.88 0 27.44 27.44 0 1 0-54.88 0Z" fill="#FFCC00" /><path d="M612.61 278.78m-27.44 0a27.44 27.44 0 1 0 54.88 0 27.44 27.44 0 1 0-54.88 0Z" fill="#FFCC00" /><path d="M813.81 278.78m-27.44 0a27.44 27.44 0 1 0 54.88 0 27.44 27.44 0 1 0-54.88 0Z" fill="#FFCC00" /><path d="M155.32 608h713.36a27.44 27.44 0 0 1 0 54.87H155.32a27.44 27.44 0 0 1 0-54.87zM155.32 717.78h713.36a27.44 27.44 0 1 1 0 54.87H155.32a27.44 27.44 0 1 1 0-54.87z" fill="#0057D9" /></svg>