<?xml version="1.0" standalone="no"?><!DOCTYPE svg PUBLIC "-//W3C//DTD SVG 1.1//EN" "http://www.w3.org/Graphics/SVG/1.1/DTD/svg11.dtd"><svg class="icon" width="200px" height="200.00px" viewBox="0 0 1024 1024" version="1.1" xmlns="http://www.w3.org/2000/svg"><path d="M597.55 334.29c-16.8-86.21-91.69-151.23-181.5-151.23s-164.69 65-181.5 151.23c-61.27 16.8-106.33 73.63-106.33 141.17 0 80.73 64.42 146.19 143.91 146.19H560c79.5 0 143.92-65.46 143.92-146.19-0.03-67.54-45.1-124.37-106.37-141.17z m51.51 135.77A96.93 96.93 0 0 1 552 566.82H280.15c-53.62 0-97.09-43.31-97.09-96.74a96.93 96.93 0 0 1 97.09-96.77c0-74.81 60.86-135.44 135.91-135.44S552 298.51 552 373.32c53.62 0 97.09 43.31 97.09 96.74z" fill="#0057D9" /><path d="M519 151.34a46.11 46.11 0 0 1 4.17-2.38c24.81-12.42 55.29-20.72 84.81-20.72 89.8 0 164.69 65 181.5 151.23 61.27 16.8 106.33 73.63 106.33 141.17 0 80.73-64.42 146.19-143.91 146.19h-12.76a27.41 27.41 0 0 1 0-54.77h4.71a96.93 96.93 0 0 0 97.09-96.77c0-53.43-43.48-96.74-97.09-96.74 0-74.81-60.86-135.44-135.91-135.44-22 0-47 11.68-66.28 18.17a25.77 25.77 0 0 1-16.8 0.05 27.41 27.41 0 0 1-5.86-49.99z" fill="#0057D9" /><path d="M498.29 685.66a13.71 13.71 0 1 1 27.41 0v21.71L541.06 692a13.71 13.71 0 0 1 19.41 19.38l-15.35 15.35h21.71a13.71 13.71 0 0 1 0 27.41h-21.74l15.35 15.38a13.71 13.71 0 0 1-19.35 19.38l-15.38-15.35v21.74a13.71 13.71 0 1 1-27.41 0v-21.72l-15.35 15.35a13.71 13.71 0 1 1-19.41-19.38l15.35-15.35h-21.71a13.71 13.71 0 0 1 0-27.41h21.74l-15.36-15.38a13.71 13.71 0 0 1 19.36-19.4l15.38 15.35zM786.21 685.66a13.71 13.71 0 1 1 27.41 0v21.71L829 692a13.71 13.71 0 1 1 19.41 19.38L833 726.75h21.71a13.71 13.71 0 0 1 0 27.41H833l15.35 15.38A13.71 13.71 0 0 1 829 788.92l-15.35-15.35v21.74a13.71 13.71 0 0 1-27.41 0v-21.74l-15.38 15.35a13.71 13.71 0 1 1-19.41-19.38l15.38-15.35h-21.74a13.71 13.71 0 1 1 0-27.41h21.74l-15.36-15.38a13.71 13.71 0 0 1 19-19.72l0.34 0.34 15.35 15.35zM210.82 685.66a13.71 13.71 0 1 1 27.41 0v21.71L253.58 692A13.71 13.71 0 0 1 273 711.4l-15.35 15.35h21.71a13.71 13.71 0 0 1 0 27.41h-21.75L273 769.54a13.71 13.71 0 0 1-19.38 19.38l-15.35-15.35v21.74a13.71 13.71 0 1 1-27.41 0v-21.74l-15.38 15.35a13.71 13.71 0 1 1-19.41-19.38l15.38-15.35H169.7a13.71 13.71 0 1 1 0-27.41h21.74l-15.35-15.38a13.71 13.71 0 0 1 19.38-19.4l15.35 15.35zM354.38 772.42a13.71 13.71 0 0 1 27.41 0v21.74l15.35-15.35a13.71 13.71 0 0 1 19.41 19.35l-15.35 15.38h21.71a13.71 13.71 0 0 1 0 27.41h-21.74l15.35 15.35a13.71 13.71 0 0 1-19.35 19.41l-15.38-15.35v21.71a13.71 13.71 0 0 1-27.41 0v-21.74L339 875.68a13.71 13.71 0 0 1-19.41-19.35L335 840.95h-21.74a13.71 13.71 0 0 1 0-27.41H335l-15.35-15.35A13.71 13.71 0 0 1 339 778.78l15.38 15.35zM642.21 772.42a13.71 13.71 0 0 1 27.41 0v21.74L685 778.8a13.71 13.71 0 0 1 19.41 19.35L689 813.54h21.71a13.71 13.71 0 1 1 0 27.41H689l15.35 15.35A13.71 13.71 0 0 1 685 875.71l-15.38-15.35v21.71a13.71 13.71 0 1 1-27.41 0v-21.74l-15.35 15.35a13.71 13.71 0 0 1-19.41-19.35l15.35-15.38h-21.71a13.71 13.71 0 1 1 0-27.41h21.74l-15.35-15.35a13.71 13.71 0 0 1 19.35-19.41l15.38 15.35z" fill="#FFCC00" /></svg>